<?xml version="1.0" standalone="no"?>
<!DOCTYPE svg PUBLIC "-//W3C//DTD SVG 20010904//EN"
 "http://www.w3.org/TR/2001/REC-SVG-20010904/DTD/svg10.dtd">
<svg version="1.0" xmlns="http://www.w3.org/2000/svg"
 width="1970.000000pt" height="1970.000000pt" viewBox="0 0 1970.000000 1970.000000"
 preserveAspectRatio="xMidYMid meet">
<metadata>
Created by potrace 1.11, written by Peter Selinger 2001-2013
</metadata>
<g transform="translate(0.000000,1970.000000) scale(0.100000,-0.100000)"
fill="#000000" stroke="none">
<path d="M13530 19691 c0 -5 -19 -8 -42 -6 -24 1 -54 -3 -68 -10 -14 -7 -43
-12 -65 -10 -22 1 -42 -1 -45 -6 -3 -5 -22 -11 -43 -13 -20 -3 -44 -9 -54 -14
-10 -4 -25 -8 -33 -7 -8 1 -24 -4 -35 -10 -11 -7 -34 -11 -52 -10 -20 1 -34
-4 -38 -13 -3 -9 -14 -13 -30 -10 -14 3 -26 0 -29 -8 -3 -8 -17 -11 -35 -9
-17 2 -34 -2 -41 -10 -6 -7 -20 -12 -30 -10 -11 2 -24 -4 -30 -13 -5 -9 -10
-14 -10 -9 0 4 -12 1 -27 -6 -16 -8 -36 -13 -45 -12 -10 2 -18 -3 -18 -10 0
-8 -11 -12 -30 -11 -18 1 -30 -3 -30 -10 0 -7 -9 -11 -19 -9 -11 2 -22 -3 -25
-12 -4 -8 -12 -13 -20 -10 -7 3 -32 -5 -55 -18 -22 -13 -50 -22 -61 -20 -11 2
-20 -1 -20 -6 0 -8 -43 -31 -63 -33 -4 -1 -11 -6 -15 -12 -4 -6 -15 -10 -24
-9 -9 2 -19 -3 -22 -11 -3 -8 -15 -14 -26 -14 -11 0 -20 -5 -20 -11 0 -5 -4
-8 -9 -5 -5 3 -14 -1 -21 -9 -7 -8 -21 -15 -31 -15 -11 0 -19 -5 -19 -12 0 -6
-3 -8 -7 -5 -3 4 -15 0 -25 -10 -10 -9 -18 -12 -18 -8 0 4 -9 0 -19 -9 -11
-10 -24 -15 -30 -12 -5 3 -11 2 -13 -2 -5 -13 -99 -62 -108 -57 -4 3 -10 -2
-14 -10 -3 -8 -12 -15 -19 -15 -8 0 -22 -9 -32 -20 -10 -11 -21 -17 -25 -15
-5 3 -10 0 -12 -5 -2 -6 -11 -12 -20 -14 -10 -1 -29 -13 -43 -26 -14 -13 -25
-20 -25 -15 0 4 -9 0 -20 -10 -11 -10 -23 -15 -26 -12 -4 4 -15 -5 -26 -18
-11 -14 -24 -23 -29 -19 -5 3 -12 -2 -15 -10 -3 -9 -10 -14 -14 -11 -4 3 -10
-2 -14 -10 -3 -8 -13 -15 -21 -15 -9 0 -28 -13 -42 -30 -13 -16 -30 -30 -36
-30 -6 0 -18 -6 -26 -14 -9 -8 -22 -16 -30 -18 -8 -2 -28 -18 -44 -35 -16 -18
-33 -31 -37 -28 -5 3 -13 -3 -19 -12 -6 -10 -11 -14 -11 -9 0 5 -9 -2 -19 -16
-11 -13 -39 -36 -63 -52 -24 -15 -54 -42 -68 -61 -14 -18 -27 -32 -28 -30 -2
2 -17 -12 -34 -31 -16 -19 -34 -32 -38 -29 -5 3 -13 -3 -19 -12 -6 -10 -11
-13 -11 -8 0 6 -9 -3 -20 -20 -11 -16 -20 -26 -20 -22 0 4 -11 -4 -25 -19 -14
-15 -25 -32 -25 -37 0 -6 -2 -8 -6 -5 -11 12 -59 -47 -55 -67 2 -11 1 -17 -3
-14 -8 8 -135 -120 -138 -140 -2 -8 -25 -36 -53 -61 -27 -25 -50 -52 -50 -59
0 -16 -51 -71 -66 -71 -8 0 -13 -15 -10 -33 1 -4 -6 -10 -14 -13 -8 -3 -13
-10 -10 -14 3 -5 -3 -11 -14 -15 -10 -3 -22 -16 -25 -28 -3 -12 -18 -35 -33
-52 -15 -16 -27 -33 -26 -37 2 -4 -8 -15 -21 -25 -12 -10 -22 -26 -20 -36 1
-9 -4 -17 -12 -17 -9 0 -13 -4 -10 -9 3 -5 -1 -11 -9 -15 -8 -3 -15 -10 -15
-16 0 -12 -32 -61 -64 -97 -11 -13 -16 -23 -11 -23 4 0 0 -9 -10 -20 -10 -11
-14 -20 -10 -20 5 0 -4 -13 -19 -29 -15 -16 -27 -32 -27 -35 2 -13 -50 -106
-59 -106 -6 0 -10 -8 -10 -19 0 -10 -7 -24 -15 -31 -9 -7 -14 -19 -11 -27 3
-7 -1 -13 -10 -13 -8 0 -13 -4 -10 -9 6 -10 -20 -67 -35 -76 -5 -4 -7 -11 -4
-16 4 -5 -1 -12 -9 -15 -9 -3 -13 -11 -10 -16 4 -6 1 -14 -6 -18 -7 -4 -12
-20 -12 -35 0 -14 -6 -29 -14 -32 -7 -2 -11 -13 -9 -24 2 -11 -2 -19 -10 -19
-7 0 -12 -8 -11 -17 2 -10 -3 -24 -11 -31 -7 -8 -10 -18 -7 -24 4 -6 1 -14 -5
-18 -7 -4 -13 -17 -14 -28 -1 -12 -6 -22 -12 -22 -6 0 -11 -12 -10 -27 0 -16
-5 -34 -12 -41 -7 -8 -10 -18 -7 -23 3 -6 -2 -19 -12 -30 -9 -10 -13 -19 -8
-19 5 0 3 -4 -5 -9 -7 -5 -13 -20 -13 -35 0 -14 -6 -30 -13 -36 -7 -6 -11 -24
-9 -40 2 -19 -1 -33 -10 -36 -7 -3 -12 -18 -11 -34 1 -18 -3 -30 -10 -30 -8 0
-11 -15 -10 -40 1 -22 -3 -41 -10 -44 -6 -2 -11 -20 -10 -40 1 -20 -3 -37 -10
-40 -8 -3 -12 -22 -10 -50 1 -29 -3 -46 -10 -46 -7 0 -10 -17 -9 -46 1 -28 -3
-47 -10 -50 -14 -5 -15 -41 -3 -61 5 -7 4 -13 -1 -13 -5 0 -8 -13 -7 -30 1
-16 -3 -34 -9 -39 -7 -6 -11 -43 -11 -101 1 -57 -3 -94 -9 -96 -12 -5 -15 -83
-4 -100 4 -6 4 -14 1 -18 -12 -11 -10 -176 2 -176 7 0 7 -3 0 -8 -12 -8 -14
-101 -2 -119 4 -6 4 -14 -1 -17 -11 -6 -8 -108 3 -126 5 -8 10 -36 10 -62 1
-26 5 -51 9 -55 11 -12 140 -10 148 2 5 7 8 7 8 0 0 -12 208 -14 226 -2 6 3
14 3 18 -1 12 -11 140 -9 152 3 7 6 48 11 98 11 53 -1 87 3 90 10 2 6 28 10
60 9 40 -1 57 3 61 13 4 10 14 13 36 8 20 -4 31 -1 35 7 3 9 22 13 54 12 34
-1 51 3 55 13 3 7 11 12 18 9 6 -2 21 1 32 7 11 6 31 11 45 11 14 1 35 7 46
13 12 6 24 8 28 5 3 -3 15 2 25 11 11 10 24 15 30 12 5 -4 12 -2 16 4 4 6 11
8 16 5 5 -4 9 -1 9 5 0 6 6 10 13 8 17 -3 61 13 68 25 4 5 19 11 33 12 15 2
34 9 43 17 9 7 17 11 17 10 1 -5 59 21 66 29 5 6 27 15 45 18 6 2 18 10 28 18
9 9 17 12 17 7 0 -5 6 -2 13 6 7 9 19 15 27 15 8 0 21 5 28 12 8 7 17 11 22 8
4 -3 11 2 14 11 4 9 9 14 12 11 4 -3 13 1 21 9 8 8 18 12 23 9 5 -3 17 5 27
18 10 13 26 23 35 21 9 -1 19 4 22 12 3 8 14 14 25 14 11 0 22 9 26 20 4 11
10 18 15 15 4 -2 19 4 33 15 14 11 29 20 34 20 5 0 20 11 33 25 13 14 30 25
37 25 8 0 26 14 40 30 13 17 28 28 32 25 4 -2 23 11 41 30 18 19 36 32 40 30
4 -2 24 14 45 35 22 22 43 40 48 40 5 0 25 14 44 30 18 17 31 30 28 30 -4 0
15 18 40 40 25 22 43 40 39 40 -4 0 6 10 22 23 16 12 31 22 34 22 13 0 49 32
43 38 -3 4 2 7 12 7 10 0 16 3 13 6 -5 4 72 80 90 90 2 1 4 11 5 23 1 11 4 21
8 21 10 0 49 36 50 46 0 5 20 25 43 44 24 19 42 38 39 42 -2 4 6 9 17 13 11 4
18 10 15 15 -3 5 4 11 14 15 12 4 18 12 14 20 -3 8 2 18 11 21 9 3 13 10 10
15 -3 5 1 9 8 9 7 0 24 17 37 38 14 20 42 56 64 78 21 23 39 46 38 50 -1 12
37 54 49 54 5 0 7 7 4 15 -4 8 -1 15 4 15 6 0 14 9 17 20 4 11 11 18 16 15 5
-3 6 1 3 9 -3 9 -2 16 3 16 6 0 20 20 33 45 12 24 26 43 29 41 3 -1 14 5 24
16 9 10 15 18 12 18 -3 0 0 10 7 23 7 12 13 24 14 27 5 22 18 40 29 40 8 0 12
8 10 19 -2 12 5 23 20 31 13 7 21 18 19 25 -3 7 2 15 10 18 9 4 13 15 11 27
-2 13 1 20 11 20 8 0 13 4 10 9 -3 5 1 12 10 15 9 4 14 13 10 21 -3 9 0 15 9
15 9 0 12 6 9 15 -4 8 1 17 9 21 9 3 14 14 12 25 -2 11 -1 17 4 15 7 -5 37 63
33 77 -1 4 2 7 7 7 17 0 42 32 37 46 -3 8 1 14 10 14 9 0 12 5 8 11 -7 12 45
129 58 129 4 0 5 7 2 15 -4 8 1 17 10 21 9 3 13 10 10 16 -3 5 1 17 9 26 8 9
13 25 12 34 -2 9 3 22 11 29 8 6 11 15 8 20 -3 5 1 12 9 15 9 3 13 16 11 34
-2 20 1 29 9 27 7 -1 11 7 9 22 -2 15 0 21 7 17 6 -4 11 -1 12 6 2 31 9 53 18
56 5 2 8 9 5 17 -3 7 0 24 7 37 7 13 14 31 15 41 3 35 4 38 13 33 4 -3 7 6 5
20 -1 14 3 27 10 30 7 3 12 17 11 32 -1 15 4 39 11 53 7 15 11 29 8 32 -4 3 1
15 9 27 9 13 13 34 10 52 -3 18 -1 28 5 24 14 -9 21 16 15 56 -3 24 1 40 11
50 9 10 13 26 10 42 -3 16 1 28 9 32 9 3 13 23 12 64 -1 35 4 61 10 64 7 2 11
27 10 62 -1 33 2 62 8 65 5 4 10 47 11 95 0 49 5 92 11 96 12 8 14 608 2 608
-5 0 -5 6 0 13 12 19 11 61 -3 77 -7 8 -13 20 -13 25 -1 13 -251 19 -251 6z"/>
<path d="M13153 14962 c-13 -2 -23 -7 -23 -11 0 -4 -28 -7 -62 -6 -70 1 -100
-3 -93 -15 3 -4 -21 -7 -53 -6 -31 1 -68 -3 -82 -9 -14 -6 -40 -11 -59 -10
-18 1 -35 -4 -37 -10 -3 -6 -21 -11 -42 -10 -20 0 -46 -4 -57 -9 -11 -6 -37
-11 -58 -12 -22 0 -42 -5 -45 -10 -4 -5 -18 -9 -32 -9 -14 0 -36 -5 -50 -11
-14 -6 -37 -11 -52 -10 -16 1 -28 -4 -28 -11 0 -7 -9 -10 -21 -8 -12 2 -35 -2
-53 -9 -17 -7 -41 -11 -54 -9 -13 2 -25 -3 -28 -12 -4 -8 -10 -13 -14 -10 -5
3 -21 0 -37 -7 -15 -6 -40 -12 -54 -12 -14 -1 -33 -7 -41 -13 -8 -7 -24 -11
-36 -8 -14 2 -22 -1 -22 -10 0 -8 -9 -12 -25 -11 -14 2 -30 -3 -36 -10 -5 -7
-19 -11 -30 -9 -11 2 -22 -2 -25 -9 -3 -8 -13 -13 -22 -11 -9 1 -26 -2 -37 -8
-11 -6 -31 -13 -45 -15 -13 -2 -27 -7 -30 -10 -3 -4 -12 -7 -20 -7 -8 1 -25
-5 -37 -13 -13 -8 -30 -12 -38 -8 -9 3 -15 0 -15 -8 0 -9 -10 -13 -30 -11 -16
1 -30 -1 -30 -5 0 -9 -50 -33 -70 -34 -8 0 -18 -4 -21 -9 -4 -5 -18 -11 -31
-12 -14 -2 -43 -12 -66 -24 -23 -12 -42 -19 -42 -16 0 3 -12 -1 -27 -8 -16 -8
-36 -13 -45 -12 -10 2 -18 -3 -18 -10 0 -8 -11 -12 -30 -10 -16 1 -27 -1 -24
-6 5 -9 0 -11 -28 -13 -7 -1 -19 -7 -27 -14 -8 -8 -22 -11 -32 -9 -11 3 -19 0
-19 -8 0 -8 -11 -12 -29 -10 -19 2 -32 -3 -36 -12 -3 -8 -11 -13 -19 -10 -7 3
-27 -3 -45 -14 -17 -10 -42 -21 -55 -23 -13 -2 -34 -9 -45 -16 -12 -6 -21 -8
-21 -4 0 3 -11 -1 -24 -9 -13 -9 -33 -14 -44 -12 -11 2 -23 -3 -26 -10 -3 -8
-14 -12 -26 -10 -12 2 -23 -2 -26 -9 -3 -8 -13 -13 -22 -11 -9 1 -30 -4 -45
-12 -16 -8 -31 -12 -35 -9 -3 3 -14 -1 -24 -11 -10 -9 -18 -13 -18 -9 0 3 -16
0 -35 -8 -19 -8 -35 -12 -35 -9 0 3 -11 -2 -24 -10 -13 -9 -34 -14 -45 -12
-13 2 -21 -1 -21 -9 0 -8 -10 -13 -22 -12 -13 1 -31 -4 -40 -12 -10 -9 -18
-12 -18 -8 0 3 -15 0 -32 -7 -18 -7 -45 -13 -60 -12 -15 1 -29 -4 -32 -11 -3
-7 -19 -11 -40 -10 -20 2 -33 0 -31 -4 7 -12 -17 -18 -52 -15 -18 1 -34 -3
-36 -10 -6 -15 -138 -15 -158 1 -8 6 -34 10 -59 9 -25 -1 -51 3 -57 8 -7 5
-29 10 -49 12 -20 1 -39 6 -43 11 -3 5 -17 9 -31 9 -14 -1 -33 5 -42 13 -9 8
-22 11 -28 7 -6 -4 -18 -1 -27 7 -9 7 -29 14 -45 14 -44 2 -49 4 -45 12 3 4
-9 8 -26 9 -17 1 -34 8 -39 15 -4 7 -8 10 -8 6 0 -4 -18 -1 -40 7 -22 8 -40
11 -40 8 0 -3 -8 1 -18 10 -10 10 -21 14 -25 11 -4 -4 -18 1 -32 10 -14 9 -30
14 -36 10 -6 -3 -18 1 -27 9 -9 8 -25 13 -34 12 -9 -2 -22 3 -28 10 -6 7 -19
11 -29 8 -9 -2 -23 3 -30 11 -8 9 -22 16 -32 16 -11 0 -19 3 -19 8 0 4 -12 8
-26 9 -15 0 -29 5 -33 11 -3 5 -14 8 -23 7 -9 -2 -22 3 -29 11 -7 8 -20 12
-30 9 -12 -4 -21 -1 -25 9 -3 9 -11 13 -16 10 -6 -4 -14 -1 -18 5 -4 7 -18 13
-31 13 -13 1 -33 9 -43 17 -16 13 -18 14 -11 1 8 -13 7 -13 -8 -1 -9 7 -17 10
-17 6 0 -5 -8 -2 -17 7 -27 22 -73 39 -73 27 0 -5 -9 -1 -21 10 -12 11 -30 18
-40 16 -10 -2 -24 2 -31 9 -15 14 -78 38 -78 29 0 -3 -9 2 -20 12 -11 10 -20
15 -20 10 0 -4 -7 -1 -17 6 -9 8 -23 14 -32 14 -9 0 -23 5 -31 10 -8 5 -22 10
-31 10 -9 0 -23 6 -32 13 -9 8 -21 11 -27 7 -6 -4 -19 0 -28 8 -9 8 -25 13
-34 12 -9 -2 -22 3 -29 11 -6 8 -20 12 -29 9 -9 -3 -23 1 -30 10 -10 12 -16
13 -28 3 -13 -10 -14 -10 -8 0 4 7 1 12 -8 12 -9 0 -16 4 -16 9 0 4 -11 7 -25
6 -13 -2 -29 3 -35 10 -6 8 -20 12 -30 10 -10 -2 -24 2 -30 10 -6 8 -22 11
-37 9 -14 -3 -33 1 -42 9 -9 8 -24 13 -33 12 -9 -2 -22 3 -29 11 -7 8 -20 12
-31 8 -10 -3 -29 1 -41 8 -12 8 -33 13 -46 12 -14 -1 -31 4 -37 11 -7 7 -25
11 -41 9 -15 -1 -34 2 -41 9 -8 6 -30 12 -49 12 -19 1 -38 6 -41 12 -4 5 -23
9 -42 7 -19 -2 -41 3 -49 9 -7 6 -36 12 -63 13 -27 0 -53 5 -56 10 -4 5 -38 9
-75 10 -38 0 -72 5 -75 10 -9 13 -182 12 -182 -1 0 -5 -5 -3 -10 5 -5 8 -10
12 -10 8 0 -4 -15 -1 -32 6 -38 15 -180 14 -200 -1 -7 -5 -26 -9 -41 -8 -15 1
-30 -2 -33 -7 -3 -4 -11 -5 -17 -1 -20 12 -226 10 -231 -3 -3 -7 -27 -10 -63
-9 -32 1 -69 -3 -83 -8 -14 -6 -50 -11 -80 -12 -30 -1 -64 -6 -75 -12 -11 -6
-33 -9 -50 -8 -34 2 -58 -12 -48 -29 5 -8 3 -8 -8 0 -17 12 -68 12 -89 -1 -8
-5 -35 -10 -59 -11 -24 -1 -47 -7 -50 -13 -4 -5 -15 -8 -26 -7 -11 2 -29 -2
-40 -9 -11 -7 -34 -11 -52 -10 -18 1 -30 -2 -27 -7 5 -8 1 -9 -34 -12 -11 0
-25 -6 -33 -12 -8 -6 -29 -10 -46 -9 -20 1 -33 -3 -33 -10 0 -6 -10 -11 -22
-10 -13 1 -30 -4 -39 -11 -8 -8 -25 -12 -36 -10 -13 3 -24 -2 -27 -11 -4 -8
-12 -13 -20 -10 -8 3 -23 -1 -35 -9 -12 -8 -26 -12 -33 -8 -7 4 -8 3 -4 -4 7
-12 -4 -15 -46 -15 -10 0 -15 -3 -13 -7 6 -10 -24 -22 -35 -15 -4 3 -10 -2
-13 -10 -4 -8 -15 -12 -26 -10 -12 2 -25 -3 -31 -13 -5 -9 -10 -13 -10 -8 0 4
-10 2 -22 -6 -13 -8 -33 -14 -45 -13 -12 1 -25 -5 -28 -13 -3 -8 -12 -11 -20
-8 -9 3 -15 0 -15 -9 0 -8 -8 -12 -19 -10 -11 2 -22 -3 -25 -12 -4 -8 -13 -13
-20 -10 -8 3 -17 -1 -20 -9 -3 -9 -10 -12 -16 -9 -6 3 -13 0 -16 -9 -3 -8 -12
-12 -20 -9 -7 3 -16 -2 -20 -10 -3 -9 -14 -14 -24 -12 -10 2 -21 -3 -24 -11
-3 -9 -10 -13 -15 -10 -5 3 -14 -1 -21 -10 -7 -8 -19 -13 -26 -10 -7 3 -15 -2
-18 -10 -3 -8 -15 -14 -26 -14 -11 0 -20 -5 -20 -11 0 -5 -5 -7 -10 -4 -6 3
-13 -1 -16 -9 -3 -9 -10 -13 -15 -10 -5 3 -9 -2 -9 -10 0 -9 -6 -13 -13 -10
-8 3 -20 -2 -27 -11 -7 -8 -21 -15 -31 -15 -11 0 -19 -5 -19 -11 0 -6 -6 -9
-12 -7 -7 3 -21 -6 -31 -19 -11 -13 -24 -22 -30 -20 -7 2 -20 -7 -30 -20 -10
-13 -23 -21 -28 -17 -5 3 -12 -2 -15 -10 -3 -9 -10 -14 -14 -11 -5 3 -22 -7
-39 -21 -17 -14 -31 -22 -31 -18 0 4 -13 -5 -29 -20 -16 -15 -32 -28 -35 -27
-16 2 -36 -13 -36 -26 0 -8 -4 -12 -9 -9 -5 3 -12 -1 -15 -10 -3 -8 -10 -13
-16 -9 -5 3 -15 -3 -22 -15 -7 -11 -21 -20 -31 -20 -10 0 -20 -7 -23 -15 -4
-8 -10 -12 -15 -9 -5 3 -9 -2 -9 -11 0 -9 -4 -14 -9 -11 -5 3 -12 -1 -15 -10
-4 -9 -9 -14 -13 -10 -4 3 -29 -15 -55 -41 -27 -27 -50 -46 -52 -43 -4 5 -85
-70 -114 -105 -7 -8 -22 -15 -32 -15 -11 0 -20 -7 -20 -16 0 -8 -4 -13 -9 -9
-5 3 -13 -4 -16 -16 -4 -11 -9 -18 -12 -15 -3 3 -19 -11 -34 -31 -16 -20 -29
-32 -29 -27 0 5 -9 -4 -20 -21 -11 -16 -20 -27 -20 -23 0 4 -27 -22 -60 -57
-33 -35 -60 -62 -60 -59 0 3 -18 -16 -40 -41 -22 -25 -40 -44 -40 -41 0 2 -13
-7 -28 -22 -16 -15 -27 -34 -26 -43 1 -9 -7 -22 -19 -28 -12 -7 -33 -28 -47
-46 -14 -19 -33 -37 -43 -41 -9 -3 -15 -9 -13 -13 3 -4 -4 -20 -15 -37 -10
-16 -19 -26 -19 -22 0 4 -10 -3 -23 -15 -13 -12 -21 -27 -20 -33 2 -6 -11 -24
-30 -41 -18 -16 -32 -34 -30 -40 2 -6 -7 -20 -21 -31 -14 -10 -22 -22 -19 -26
3 -3 -1 -6 -9 -6 -10 0 -15 -7 -14 -17 2 -10 -8 -26 -21 -36 -13 -10 -21 -22
-18 -26 2 -5 -7 -19 -21 -32 -13 -12 -23 -28 -20 -35 2 -6 -6 -17 -19 -24 -15
-8 -21 -18 -18 -31 4 -13 1 -19 -8 -17 -8 2 -13 -3 -11 -9 1 -7 -5 -13 -13
-13 -8 0 -12 -6 -9 -13 2 -7 -7 -24 -20 -36 -14 -13 -23 -28 -20 -33 3 -4 -1
-11 -10 -14 -8 -3 -12 -12 -9 -20 3 -8 1 -14 -4 -14 -12 0 -44 -56 -36 -64 3
-3 -1 -6 -10 -6 -10 0 -14 -5 -11 -15 4 -8 -1 -17 -9 -21 -9 -3 -13 -13 -9
-26 3 -12 1 -19 -4 -16 -13 7 -41 -26 -38 -45 1 -10 -2 -15 -7 -11 -5 3 -9 0
-9 -5 0 -22 -2 -26 -17 -43 -9 -10 -12 -18 -8 -18 4 0 1 -8 -8 -18 -10 -10
-14 -22 -11 -25 4 -4 -1 -9 -10 -13 -9 -3 -13 -10 -10 -15 3 -5 -2 -9 -10 -9
-10 0 -13 -6 -10 -15 4 -8 -1 -17 -9 -21 -9 -3 -13 -12 -10 -20 3 -8 0 -14 -6
-14 -6 0 -11 -9 -11 -20 0 -11 -6 -23 -14 -26 -8 -3 -12 -13 -8 -26 3 -14 1
-19 -6 -14 -12 7 -13 4 -16 -32 0 -11 -7 -26 -15 -35 -7 -10 -10 -17 -6 -17 5
0 1 -8 -8 -17 -8 -10 -16 -21 -16 -26 0 -4 -13 -31 -28 -60 -15 -28 -26 -60
-24 -70 1 -9 -5 -20 -13 -23 -9 -3 -13 -10 -11 -15 3 -5 -1 -19 -10 -32 -8
-13 -12 -27 -8 -31 4 -4 2 -11 -5 -15 -7 -4 -14 -17 -15 -29 0 -11 -6 -20 -12
-19 -5 1 -9 -12 -7 -31 1 -18 -2 -31 -7 -28 -12 8 -21 -18 -16 -44 2 -13 -1
-20 -11 -20 -9 0 -12 -5 -8 -11 3 -6 1 -15 -7 -20 -7 -4 -14 -18 -14 -31 0
-13 -6 -33 -12 -44 -7 -12 -9 -24 -5 -28 3 -4 1 -10 -5 -14 -7 -4 -14 -20 -17
-36 -3 -15 -9 -33 -14 -39 -5 -7 -8 -23 -6 -36 3 -13 -3 -32 -12 -42 -9 -10
-13 -23 -9 -29 4 -6 0 -19 -8 -28 -8 -9 -13 -25 -12 -35 2 -10 -3 -34 -11 -53
-8 -19 -12 -39 -9 -43 3 -5 -2 -12 -10 -15 -11 -4 -14 -14 -11 -33 3 -15 1
-30 -5 -34 -6 -3 -12 -25 -12 -48 -1 -23 -7 -41 -13 -41 -7 0 -10 -13 -9 -32
2 -18 -1 -35 -6 -39 -5 -3 -10 -25 -12 -50 -1 -24 -7 -51 -12 -59 -5 -8 -9
-31 -10 -51 0 -20 -5 -42 -11 -50 -7 -8 -10 -31 -9 -51 2 -21 -2 -41 -9 -47
-8 -6 -12 -29 -11 -53 1 -24 -3 -54 -9 -68 -7 -14 -11 -51 -10 -82 1 -32 -2
-56 -6 -53 -11 7 -16 -30 -15 -92 1 -29 -4 -54 -9 -56 -7 -3 -11 -36 -10 -83
1 -44 -4 -85 -10 -93 -14 -18 -16 -82 -3 -98 6 -9 6 -13 -1 -13 -6 0 -9 -15
-8 -32 2 -18 -2 -39 -8 -47 -9 -12 -8 -13 3 -6 11 6 12 4 5 -16 -8 -23 -11
-1173 -3 -1414 3 -66 9 -127 14 -135 6 -8 11 -53 11 -100 2 -92 10 -130 28
-130 7 0 8 -3 1 -8 -14 -9 -13 -115 1 -124 7 -4 10 -36 9 -78 0 -43 3 -75 10
-80 7 -6 11 -35 10 -67 -1 -32 3 -61 9 -65 5 -3 10 -31 11 -62 1 -30 6 -61 12
-68 5 -7 9 -31 8 -53 -1 -22 3 -49 10 -60 6 -11 11 -36 10 -55 -1 -19 3 -42
10 -50 6 -8 11 -39 10 -67 0 -31 4 -54 11 -57 6 -2 11 -23 10 -48 -1 -23 5
-49 11 -56 7 -7 11 -26 9 -42 -2 -16 0 -27 4 -25 10 6 23 -62 15 -76 -4 -6 0
-18 8 -27 9 -10 14 -31 12 -49 -1 -18 3 -34 10 -37 7 -2 11 -17 10 -33 -1 -15
3 -41 9 -58 7 -16 11 -37 11 -45 -1 -8 5 -28 12 -43 8 -16 12 -34 10 -40 -2
-7 1 -23 8 -37 6 -14 11 -37 10 -52 -1 -18 3 -28 11 -28 9 0 13 -9 10 -22 -2
-13 2 -32 9 -43 7 -11 12 -32 11 -47 -1 -15 4 -30 11 -32 7 -3 11 -17 8 -35
-2 -17 2 -35 10 -41 7 -6 12 -19 10 -28 -1 -9 2 -20 8 -23 5 -4 10 -22 11 -40
1 -19 8 -44 15 -57 7 -13 10 -30 7 -37 -2 -7 1 -15 7 -18 7 -3 13 -17 15 -33
1 -15 6 -30 11 -33 4 -3 7 -17 6 -31 -3 -32 5 -51 17 -44 6 4 8 -6 5 -24 -3
-17 -1 -32 4 -34 9 -3 16 -22 18 -51 1 -5 5 -6 9 -3 4 2 8 -10 7 -27 0 -18 3
-34 7 -37 4 -3 9 -15 11 -25 1 -11 7 -27 12 -35 5 -8 10 -21 11 -28 2 -8 6
-21 10 -30 4 -9 8 -24 8 -32 1 -8 8 -25 15 -38 7 -13 10 -30 7 -37 -2 -7 2
-16 10 -19 9 -3 13 -15 10 -30 -3 -16 1 -27 10 -30 9 -3 13 -10 10 -14 -3 -5
1 -20 9 -35 8 -15 11 -27 8 -27 -3 0 1 -7 8 -17 8 -9 14 -23 14 -32 0 -9 5
-23 10 -31 5 -8 10 -22 10 -31 0 -9 6 -23 14 -32 7 -9 11 -23 8 -32 -4 -8 1
-21 9 -30 8 -8 13 -19 10 -24 -3 -5 1 -12 10 -15 10 -4 14 -12 10 -23 -4 -9 1
-24 10 -34 10 -11 13 -19 8 -19 -5 0 -4 -4 3 -8 7 -4 15 -23 18 -42 3 -19 11
-38 17 -41 6 -4 8 -16 6 -27 -4 -13 0 -23 9 -26 8 -4 13 -13 9 -21 -3 -8 -1
-15 4 -15 6 0 10 -6 10 -14 0 -8 5 -16 11 -18 6 -2 13 -15 14 -30 2 -14 8 -35
14 -47 7 -11 8 -21 4 -21 -4 0 -1 -5 9 -10 10 -6 15 -20 13 -35 -1 -14 2 -25
6 -25 5 0 9 -7 9 -15 0 -8 4 -15 8 -15 10 0 34 -58 37 -88 1 -13 8 -28 16 -33
8 -5 10 -9 5 -9 -5 0 -1 -9 9 -20 10 -11 15 -20 11 -20 -4 0 0 -7 9 -16 9 -9
14 -22 11 -29 -3 -8 1 -16 9 -19 7 -2 12 -16 11 -30 -2 -15 3 -27 11 -31 9 -3
13 -12 10 -19 -3 -8 1 -17 10 -20 8 -4 13 -13 10 -20 -3 -8 1 -17 9 -20 9 -3
14 -12 12 -18 -3 -7 1 -19 9 -26 7 -8 11 -17 8 -22 -3 -4 2 -11 11 -14 9 -3
14 -13 11 -20 -3 -8 1 -17 9 -20 9 -3 13 -10 10 -15 -4 -5 -2 -11 4 -13 6 -2
11 -17 13 -35 1 -17 5 -29 10 -26 4 2 7 -5 7 -15 0 -11 7 -25 15 -32 9 -7 14
-18 12 -24 -2 -6 2 -17 10 -24 7 -8 11 -18 8 -23 -4 -5 -1 -9 4 -9 9 0 38 -54
41 -78 1 -4 8 -11 16 -15 8 -4 14 -14 14 -21 0 -8 7 -19 15 -26 8 -7 12 -16 9
-21 -3 -5 0 -9 6 -9 6 0 8 -4 5 -10 -3 -5 -1 -10 5 -10 7 0 10 -6 7 -14 -3 -8
1 -17 10 -20 8 -4 13 -13 9 -21 -3 -8 -2 -15 3 -15 9 0 55 -87 56 -105 0 -5
10 -18 23 -28 12 -10 20 -22 17 -27 -3 -4 2 -13 11 -20 8 -7 13 -19 10 -27 -3
-8 -2 -12 3 -8 5 3 12 -8 16 -25 4 -16 13 -30 21 -30 12 0 16 -11 13 -36 0 -3
7 -11 17 -18 9 -7 14 -18 10 -24 -4 -7 -2 -12 3 -12 6 0 11 -4 11 -10 0 -5 10
-21 22 -36 13 -14 23 -29 24 -32 2 -19 31 -69 46 -80 10 -7 18 -22 18 -33 0
-10 6 -19 13 -19 10 0 40 -56 36 -68 0 -2 12 -17 27 -33 15 -16 24 -29 20 -29
-4 0 4 -14 18 -31 14 -17 23 -36 19 -42 -3 -7 -3 -9 2 -5 8 8 40 -29 40 -45 0
-5 7 -14 17 -21 9 -6 18 -21 20 -31 1 -11 14 -30 27 -42 13 -13 20 -23 15 -23
-5 -1 1 -9 13 -19 12 -10 23 -26 25 -37 2 -10 13 -27 26 -38 13 -10 21 -23 19
-29 -2 -6 12 -24 30 -40 19 -16 32 -35 30 -41 -2 -6 7 -19 20 -29 13 -10 21
-23 18 -28 -4 -5 -1 -9 5 -9 6 0 8 -4 5 -10 -3 -5 1 -10 9 -10 15 0 18 -4 20
-32 1 -7 17 -27 36 -45 19 -18 30 -33 25 -33 -5 0 4 -14 20 -30 16 -17 25 -30
21 -30 -5 0 8 -18 28 -40 20 -22 36 -45 36 -51 0 -6 14 -22 30 -36 17 -13 28
-29 24 -34 -3 -5 0 -9 5 -9 6 0 11 -5 11 -11 0 -6 11 -20 25 -31 14 -11 23
-24 20 -29 -4 -5 -1 -9 6 -9 7 0 10 -2 7 -5 -3 -3 8 -19 24 -35 16 -17 27 -33
25 -37 -3 -5 10 -19 29 -33 18 -14 32 -30 29 -37 -2 -7 16 -31 40 -54 25 -24
43 -45 40 -47 -3 -3 11 -22 31 -44 19 -21 32 -44 28 -50 -4 -6 -3 -9 2 -6 5 3
25 -14 44 -38 19 -23 40 -41 47 -39 6 2 10 -5 9 -19 -2 -12 3 -27 11 -34 7 -7
13 -10 13 -7 0 3 16 -12 35 -34 19 -21 35 -41 35 -45 0 -10 18 -30 74 -84 71
-69 86 -85 86 -94 0 -5 5 -6 10 -3 5 3 11 1 11 -4 3 -21 5 -26 16 -46 7 -11
13 -16 13 -11 0 5 13 -7 29 -27 15 -20 31 -34 34 -31 3 3 8 -4 12 -15 3 -12
13 -21 21 -21 8 0 14 -4 14 -9 0 -13 59 -71 71 -71 6 0 7 -4 4 -10 -3 -5 0 -8
7 -5 7 3 46 -29 87 -70 41 -41 78 -75 82 -75 5 0 9 -4 9 -8 0 -15 35 -49 46
-45 5 2 32 -19 58 -47 26 -27 51 -50 56 -50 5 0 26 -14 46 -32 20 -18 43 -33
52 -34 9 -2 19 -9 23 -16 17 -26 25 -33 61 -52 21 -10 35 -23 31 -29 -3 -6 -1
-7 5 -3 5 3 23 -4 39 -17 15 -12 40 -29 55 -36 16 -8 28 -18 28 -23 0 -5 5 -6
10 -3 6 3 13 -1 16 -9 3 -9 10 -13 16 -10 5 3 17 -1 26 -9 9 -9 22 -16 27 -17
27 -6 54 -20 62 -34 5 -9 21 -17 37 -18 16 -2 30 -8 33 -15 3 -6 10 -10 17 -7
7 3 19 -2 26 -10 7 -9 16 -14 20 -11 4 3 13 -2 20 -10 7 -8 21 -15 32 -15 10
0 17 -4 13 -9 -3 -6 4 -8 17 -6 12 3 31 -3 42 -13 11 -9 16 -12 13 -5 -5 8 -1
8 18 0 14 -7 25 -16 25 -21 0 -5 7 -3 15 4 11 9 15 9 15 1 0 -7 4 -10 9 -7 5
4 11 1 13 -5 2 -7 15 -12 28 -13 14 -1 31 -5 38 -10 8 -4 34 -9 59 -11 25 -1
48 -7 52 -11 10 -15 69 -17 384 -17 329 0 369 2 360 16 -4 6 -1 7 8 1 22 -13
37 -13 42 1 3 8 22 12 51 11 27 -1 46 3 46 10 0 6 17 10 40 9 25 -1 40 3 40
10 0 7 16 11 40 11 24 -1 40 3 40 10 0 7 13 10 30 9 17 -1 36 3 43 9 7 6 26
11 42 10 38 -1 56 6 49 17 -3 5 5 7 18 5 13 -2 29 1 36 7 8 6 23 12 35 14 11
2 25 7 31 12 6 5 19 7 29 6 10 -2 20 2 23 10 3 7 18 11 35 10 18 -2 29 2 29
10 0 7 10 11 23 11 12 -1 28 2 36 8 7 6 25 12 39 14 15 2 29 7 32 11 3 5 13 7
22 5 10 -1 22 5 28 14 5 10 10 13 10 8 0 -4 10 -2 23 6 12 8 32 14 44 13 12
-1 25 5 28 13 3 8 12 11 20 8 9 -3 15 0 15 8 0 9 10 13 30 11 17 -1 30 1 30 5
0 8 47 32 75 37 11 2 22 8 23 13 2 6 8 7 13 4 6 -3 18 1 27 9 9 8 25 13 35 12
10 -2 21 3 24 11 3 8 9 11 14 8 6 -3 17 0 26 8 9 7 24 13 33 13 9 0 24 6 34
14 9 8 19 11 23 7 3 -3 16 0 27 7 12 8 31 13 43 12 12 -1 25 5 28 13 3 8 12
11 20 8 9 -3 15 0 15 8 0 7 10 12 23 11 12 -1 32 5 44 13 13 8 30 12 38 8 9
-3 15 0 15 8 0 9 11 13 33 11 17 -2 35 1 38 7 3 5 18 10 33 12 16 2 31 7 34
12 4 5 21 9 37 8 17 0 37 5 46 12 8 8 25 12 36 10 12 -3 24 1 27 10 3 9 16 12
36 10 16 -2 34 2 40 9 6 8 29 12 55 11 25 -1 46 2 48 7 2 6 14 11 27 11 14 1
34 7 45 12 11 6 38 10 60 9 22 -1 51 4 65 10 14 7 51 11 83 11 36 -1 57 2 57
10 0 7 29 11 90 10 56 -1 91 3 94 9 3 8 77 11 230 10 146 0 226 3 226 10 0 6
3 6 8 -1 4 -5 24 -10 45 -9 21 1 42 -3 47 -9 5 -7 41 -11 87 -10 45 1 81 -3
85 -9 3 -6 30 -11 60 -12 29 0 60 -5 67 -10 8 -4 30 -9 50 -10 20 0 45 -6 56
-12 11 -5 35 -9 53 -7 19 1 35 -3 38 -9 2 -7 19 -11 37 -11 17 1 38 -4 46 -10
8 -6 22 -12 33 -12 10 -1 27 -2 39 -3 11 0 18 -5 15 -10 -3 -4 10 -7 30 -5 23
1 37 -2 41 -12 3 -10 10 -11 23 -4 13 7 22 4 35 -10 11 -13 27 -18 47 -15 18
2 31 -1 34 -10 3 -8 15 -12 29 -9 12 2 28 -3 35 -11 7 -9 21 -13 30 -10 10 3
24 0 31 -7 8 -8 21 -13 29 -13 8 1 23 -5 32 -13 9 -8 22 -11 28 -7 6 4 20 -1
31 -11 10 -9 19 -13 19 -9 0 4 8 1 19 -9 10 -9 25 -14 34 -10 10 4 19 0 23 -9
3 -9 12 -13 19 -10 8 2 44 -11 81 -31 37 -19 71 -33 76 -30 5 3 19 -2 30 -13
15 -12 19 -13 14 -3 -4 8 1 6 11 -6 10 -11 27 -20 38 -18 11 2 28 -4 37 -13
10 -9 18 -13 18 -9 0 3 10 0 23 -9 13 -8 27 -12 30 -9 4 4 14 1 23 -7 9 -7 27
-14 41 -15 14 0 28 -5 31 -11 8 -11 41 -26 62 -27 8 -1 22 -6 30 -11 8 -5 22
-10 30 -10 8 0 25 -6 38 -13 12 -7 22 -10 22 -7 0 3 10 0 23 -7 12 -7 26 -11
30 -10 4 1 18 -3 30 -10 12 -7 29 -13 37 -13 8 0 22 -4 30 -10 8 -5 26 -9 41
-9 14 -1 33 -7 41 -13 8 -7 18 -10 21 -7 4 4 17 0 31 -9 13 -9 34 -14 47 -12
13 3 30 -1 38 -8 9 -7 30 -13 46 -12 17 1 44 -5 62 -12 18 -7 39 -10 47 -7 9
3 18 0 21 -8 4 -10 21 -13 56 -12 32 1 56 -4 65 -13 10 -10 14 -11 14 -2 0 8
4 8 13 2 6 -6 30 -9 52 -8 22 2 49 -2 60 -8 25 -14 126 -17 142 -5 6 5 14 5
16 1 7 -12 338 -10 356 1 10 6 12 5 7 -2 -10 -17 9 -15 23 1 7 10 32 14 76 13
40 -1 66 3 69 10 2 6 17 10 33 9 15 -1 38 5 50 13 12 7 31 11 43 7 13 -4 22
-1 25 8 4 8 19 13 41 12 19 0 40 5 46 13 6 7 17 11 25 8 7 -3 13 0 13 7 0 9 3
8 9 -1 7 -11 9 -11 14 1 3 9 16 14 31 13 14 -2 27 3 30 11 3 8 10 12 15 9 5
-3 14 1 21 8 6 8 20 13 30 11 11 -2 24 4 29 13 5 9 11 15 13 13 5 -7 52 11 71
27 9 8 17 11 17 7 0 -4 9 0 19 9 11 10 24 15 29 12 6 -3 13 1 16 10 4 9 13 14
21 10 9 -3 15 0 15 9 0 8 8 12 19 10 11 -2 22 3 25 12 4 8 13 13 21 9 9 -3 15
0 15 10 0 8 5 12 10 9 6 -3 10 1 10 9 0 9 7 13 20 11 12 -2 20 2 20 10 0 7 8
12 17 11 10 -2 26 8 36 21 10 13 22 21 27 18 4 -3 22 10 38 29 17 19 33 32 36
29 3 -4 19 6 35 21 18 17 34 25 42 21 8 -5 10 -4 5 3 -4 7 -3 12 3 12 6 0 25
16 42 35 17 19 34 34 38 33 16 -2 34 3 29 7 -7 7 120 130 133 130 5 0 14 7 19
15 5 8 10 11 10 7 0 -4 6 -2 14 5 8 7 13 15 12 18 -1 3 8 15 21 27 13 12 23
19 23 15 0 -4 9 7 20 23 11 17 20 26 20 22 0 -4 19 15 43 42 23 27 46 50 50
50 11 1 41 31 31 31 -4 0 6 10 23 23 16 12 32 27 34 32 2 6 19 23 36 39 18 15
31 31 29 35 -2 3 2 15 10 26 8 10 14 16 14 12 0 -3 21 17 48 45 26 28 46 55
44 60 -1 5 5 11 13 14 8 3 12 10 9 15 -3 5 2 9 11 9 9 0 13 5 10 10 -3 6 0 10
7 10 14 0 54 56 51 71 -2 5 1 9 6 9 4 0 20 11 35 25 15 14 24 25 21 25 -7 0
10 22 56 71 20 21 34 41 31 44 -3 3 0 5 6 5 7 0 11 3 9 8 -3 11 39 62 47 55 3
-3 7 -1 7 5 1 7 2 15 3 20 2 11 43 63 53 65 4 1 7 5 6 9 -2 5 3 8 11 8 8 0 13
8 12 17 -2 9 10 28 26 41 15 13 28 28 28 33 0 5 10 20 23 35 12 14 22 29 22
33 0 13 42 60 49 54 5 -6 10 11 7 29 0 3 14 19 32 35 17 15 32 34 33 41 2 28
4 33 13 28 7 -5 17 7 26 34 10 28 20 40 33 40 8 0 12 3 9 6 -10 10 25 63 45
70 10 3 16 9 13 14 -3 5 6 22 20 38 13 16 22 32 19 34 -3 3 6 15 20 26 14 10
22 22 19 26 -4 3 6 19 20 34 15 16 24 31 21 35 -4 4 0 9 9 13 9 3 21 21 27 39
6 19 20 37 31 40 11 4 17 10 14 15 -3 5 3 18 15 30 11 11 20 23 20 28 1 17 77
121 84 114 4 -4 7 -2 6 3 -5 25 1 46 12 39 7 -5 8 -3 3 5 -4 8 4 24 21 42 15
16 24 29 19 29 -4 0 -1 8 8 18 15 17 17 21 17 43 0 5 4 8 8 5 9 -5 47 62 44
76 -1 4 9 15 21 25 12 10 21 26 19 36 -2 10 2 16 9 15 7 -2 13 6 13 17 0 11 6
24 13 28 8 5 11 12 8 17 -3 5 4 15 15 23 11 7 17 17 13 20 -3 4 -1 7 6 7 7 0
9 5 6 10 -3 6 0 13 9 16 8 3 13 14 11 24 -2 10 3 21 11 24 9 3 12 10 9 16 -3
6 1 13 9 16 9 3 13 10 10 16 -3 5 6 23 22 39 15 16 24 29 19 29 -4 0 0 9 10
20 10 11 14 20 10 20 -4 0 -1 8 8 18 10 10 14 22 11 25 -4 4 0 9 9 13 9 3 14
11 11 19 -3 7 2 15 10 18 9 4 13 13 10 22 -4 8 1 17 10 21 9 3 14 10 11 14 -3
5 1 15 8 22 8 7 12 20 9 30 -2 10 2 20 12 24 9 3 13 10 10 15 -3 5 1 12 10 15
8 3 13 11 10 19 -3 7 2 15 10 18 9 4 12 14 9 27 -3 11 -2 20 3 18 5 -2 10 0
11 5 2 4 10 21 18 37 9 17 12 30 8 30 -4 0 2 7 13 15 10 8 15 15 10 15 -5 0
-1 9 9 20 10 11 14 20 10 20 -4 0 -1 8 8 18 15 17 17 21 17 43 0 5 6 7 13 3 6
-4 9 -3 4 1 -4 5 0 19 8 32 9 13 13 28 9 34 -3 6 1 18 9 27 15 17 17 21 17 43
0 5 4 8 9 4 6 -3 8 3 6 15 -2 11 1 19 8 17 7 -1 11 4 9 12 -2 8 2 17 9 21 6 4
12 19 12 34 0 14 3 26 8 26 5 0 9 9 9 20 0 11 4 20 9 20 5 0 12 14 16 30 4 17
10 30 15 30 5 0 7 9 5 20 -2 12 2 23 10 27 8 3 12 9 9 14 -3 6 0 17 8 26 7 9
13 24 13 33 0 9 6 24 14 33 7 10 10 17 6 17 -4 0 -1 7 6 16 8 9 14 22 15 28 0
6 2 19 2 29 1 11 7 15 14 11 7 -4 8 -3 4 5 -4 6 0 18 8 27 9 9 14 19 11 24 -3
4 2 24 10 44 9 20 13 41 10 45 -3 5 2 12 11 15 8 3 13 10 10 15 -3 5 1 14 10
21 8 7 12 20 9 28 -3 8 2 23 11 33 10 11 14 19 10 19 -3 0 0 15 8 34 8 19 12
37 9 39 -2 3 3 16 11 29 9 14 13 28 9 32 -4 4 -2 11 5 15 7 4 14 18 15 29 1
12 6 22 13 22 6 0 10 11 8 26 -1 14 3 27 10 30 7 3 12 16 10 29 -1 14 2 27 7
31 5 3 9 22 9 43 0 40 -23 71 -54 71 -9 0 -14 4 -11 10 3 5 0 7 -8 4 -8 -3
-20 2 -27 11 -7 8 -21 15 -32 15 -10 0 -16 4 -13 10 3 5 0 7 -8 4 -8 -3 -17 2
-20 10 -4 9 -13 13 -22 10 -8 -4 -17 0 -21 9 -3 9 -12 13 -20 10 -7 -3 -17 2
-20 11 -3 9 -10 13 -16 10 -5 -3 -18 2 -29 12 -10 9 -19 13 -19 9 0 -4 -8 -1
-18 8 -10 10 -21 15 -24 12 -2 -3 -15 6 -28 20 -13 14 -32 25 -42 25 -10 0
-18 5 -18 10 0 6 -3 9 -7 8 -12 -3 -68 28 -82 46 -7 9 -17 13 -22 10 -5 -3 -9
-1 -9 4 0 5 -12 15 -27 23 -15 8 -38 22 -49 33 -12 10 -25 17 -29 16 -4 -1
-20 11 -36 26 -16 15 -29 24 -29 19 0 -5 -13 4 -29 19 -16 15 -33 28 -38 28
-12 0 -49 28 -38 28 6 0 1 6 -10 13 -20 11 -25 13 -45 16 -5 0 -10 7 -10 14 0
12 -37 41 -53 42 -5 0 -14 8 -21 17 -7 10 -15 15 -19 12 -3 -3 -8 4 -12 15 -3
12 -13 21 -21 21 -8 0 -14 7 -14 15 0 8 -9 15 -20 15 -11 0 -23 7 -26 15 -4 8
-10 15 -15 15 -12 0 -58 48 -51 54 3 3 -2 6 -11 6 -9 0 -17 6 -17 13 0 12 -39
43 -51 40 -3 -1 -35 28 -71 65 -36 37 -86 86 -111 110 -26 23 -44 42 -40 42 3
0 -10 13 -30 29 -20 15 -34 31 -30 35 3 3 1 6 -6 6 -7 0 -10 4 -6 9 3 5 -3 16
-12 23 -10 7 -35 32 -55 56 -21 23 -38 39 -38 35 0 -10 -28 31 -32 46 -2 7
-23 32 -46 56 -24 24 -41 48 -38 54 4 5 -3 12 -14 16 -11 3 -20 12 -20 20 0 7
-7 16 -16 19 -9 4 -14 13 -10 22 3 8 2 12 -4 9 -6 -3 -10 -1 -10 5 0 7 -9 19
-20 28 -10 10 -20 24 -22 32 -2 8 -13 23 -26 33 -12 10 -20 23 -17 28 4 5 1 9
-6 9 -7 0 -9 3 -6 7 4 3 -2 13 -13 20 -11 8 -18 18 -15 22 2 5 -4 16 -14 25
-11 10 -25 32 -32 49 -7 18 -24 43 -36 57 -13 14 -22 29 -20 35 2 5 -2 16 -10
23 -7 8 -10 18 -7 24 4 7 2 8 -4 4 -11 -7 -14 -3 -16 27 -1 6 -11 20 -23 30
-13 10 -22 21 -21 25 1 4 -10 31 -25 59 -15 29 -28 56 -28 60 0 5 -8 16 -16
26 -9 9 -13 17 -9 17 3 0 -4 17 -17 38 -12 20 -22 44 -22 52 1 8 -5 23 -13 33
-8 9 -11 17 -7 17 4 0 0 9 -9 19 -10 11 -15 24 -12 29 3 6 -1 13 -10 16 -8 3
-14 11 -12 18 3 19 -24 88 -35 88 -5 0 -6 7 -3 16 4 10 -1 25 -10 35 -9 10
-13 22 -10 28 4 6 -1 22 -10 36 -9 14 -14 31 -11 39 3 8 -1 17 -8 20 -8 3 -12
14 -10 26 2 11 -1 20 -6 20 -6 0 -7 4 -4 10 3 5 2 10 -4 10 -5 0 -8 8 -7 18 2
9 -1 20 -7 23 -5 4 -10 24 -11 45 -1 24 -8 46 -20 57 -10 9 -14 17 -8 17 5 0
8 9 5 20 -3 11 -9 20 -13 20 -5 0 -7 8 -5 18 1 9 -3 31 -9 47 -7 17 -12 46
-11 65 0 19 -4 38 -9 42 -6 4 -11 28 -12 54 -1 25 -7 50 -13 53 -6 4 -9 23 -7
44 2 21 -1 41 -9 47 -8 7 -12 31 -11 68 2 32 -3 66 -10 77 -7 12 -11 46 -10
83 2 39 -2 66 -9 72 -7 6 -11 31 -10 60 1 28 -1 53 -6 56 -5 3 -6 10 -2 16 14
23 10 133 -5 151 -8 9 -11 17 -6 17 5 0 2 5 -6 10 -8 5 -10 10 -5 10 12 0 14
99 2 117 -4 6 -4 14 1 16 4 3 7 61 6 129 0 70 4 129 10 136 5 8 10 71 10 143
1 80 5 132 12 137 11 8 12 71 1 89 -4 6 -3 14 2 18 5 3 8 14 6 25 -2 10 2 23
9 29 7 6 11 34 11 71 -1 37 3 64 9 66 6 2 11 21 10 42 -1 20 4 46 11 57 7 11
11 37 9 58 -2 24 1 40 10 43 7 3 12 19 11 39 -1 19 4 40 11 45 7 6 11 27 10
46 -2 21 1 34 9 34 7 0 11 13 10 36 -2 21 2 37 10 40 7 3 11 16 9 30 -1 13 3
30 10 37 7 7 12 20 10 30 -1 10 3 20 11 23 8 3 11 18 9 40 -2 23 2 37 11 40 7
3 11 12 8 20 -3 7 1 16 10 19 8 4 13 16 11 31 -1 14 4 28 11 30 8 3 12 15 9
30 -3 15 1 27 10 30 8 3 12 12 9 20 -3 7 2 16 10 19 9 4 13 16 11 36 -2 18 0
28 6 24 9 -6 14 8 11 28 -1 4 5 10 13 13 8 3 12 13 8 26 -3 14 -1 19 6 14 11
-6 17 6 13 27 -1 4 5 10 13 13 8 3 12 13 9 25 -4 13 -1 19 8 17 8 -2 13 3 11
11 -2 7 5 22 14 32 9 11 13 19 9 19 -4 0 0 9 10 20 10 11 14 20 10 20 -4 0 0
9 10 20 10 11 14 20 10 20 -4 0 -1 8 8 18 10 10 14 22 11 25 -4 4 0 9 8 12 10
4 14 14 10 27 -3 14 -1 19 6 14 11 -6 16 5 13 26 0 4 10 16 24 26 13 11 21 22
18 26 -4 3 6 19 21 35 15 16 28 32 27 35 -3 19 0 26 11 20 7 -4 8 -3 4 5 -5 7
3 23 18 38 14 14 24 29 21 33 -2 4 7 17 20 30 13 13 22 26 20 30 -2 4 11 22
30 40 19 18 32 37 29 42 -3 4 2 11 10 14 9 3 14 10 11 14 -3 5 4 11 15 15 11
4 18 11 15 16 -4 5 -1 9 5 9 6 0 8 5 5 10 -3 6 1 13 9 16 9 3 13 10 10 15 -3
5 -1 9 5 9 14 0 61 52 55 61 -2 4 6 15 18 23 12 9 20 16 16 16 -5 0 109 111
120 116 3 2 10 29 11 48 1 5 3 7 6 4 5 -5 159 146 176 173 5 8 9 10 9 4 0 -5
7 1 16 13 9 13 21 22 28 20 6 -2 21 6 33 19 12 13 20 23 18 23 -3 0 20 23 50
50 30 28 62 50 71 50 8 0 12 5 9 10 -3 6 0 10 7 10 7 0 22 14 33 30 19 28 49
47 68 42 5 -1 6 2 3 7 -4 5 3 12 13 16 11 3 23 14 26 25 3 10 13 17 22 16 9
-2 30 13 46 31 17 19 35 32 41 30 12 -4 47 28 39 36 -2 3 11 11 31 18 19 7 33
16 31 20 -4 6 17 20 35 23 17 3 49 34 42 41 -4 4 0 6 9 2 10 -3 26 4 39 18 13
14 26 22 31 20 4 -3 14 4 22 15 7 11 17 17 20 13 4 -3 7 -2 7 4 0 6 11 14 25
17 14 4 25 13 25 21 0 8 3 14 8 14 21 -4 23 3 7 21 -10 11 -15 23 -12 26 4 4
-5 15 -18 26 -14 11 -23 24 -20 28 3 5 -10 23 -30 41 -19 18 -35 38 -35 45 0
7 -12 25 -27 39 -16 14 -28 29 -28 33 -1 16 -31 52 -44 52 -8 0 -12 3 -8 6 3
3 -8 18 -24 31 -16 14 -28 28 -25 30 7 7 -60 82 -94 106 -11 7 -25 25 -33 39
-15 30 -83 108 -94 109 -5 0 -24 20 -43 44 -19 24 -43 47 -52 50 -10 4 -18 12
-18 20 0 7 -15 20 -32 28 -18 9 -64 48 -102 86 -38 39 -73 68 -77 66 -4 -3
-20 10 -37 29 -16 19 -40 40 -53 47 -25 12 -61 40 -129 98 -22 18 -40 30 -40
25 0 -4 -13 5 -30 21 -16 16 -30 25 -30 19 -1 -5 -9 1 -19 13 -10 12 -21 19
-25 16 -3 -4 -6 -1 -6 6 0 7 -4 10 -9 7 -4 -3 -18 6 -31 19 -13 13 -26 23 -30
20 -3 -2 -18 7 -32 20 -14 13 -28 22 -31 19 -2 -2 -10 2 -17 11 -7 8 -18 15
-25 15 -6 0 -20 9 -30 20 -10 11 -22 17 -26 14 -5 -3 -12 1 -15 10 -3 8 -11
13 -18 10 -7 -3 -19 2 -26 11 -7 8 -21 15 -31 15 -11 0 -19 4 -19 9 0 5 -10
12 -22 16 -13 4 -26 8 -30 10 -5 1 -12 3 -17 4 -5 0 -12 10 -16 20 -4 12 -12
18 -20 14 -8 -3 -17 1 -20 10 -4 8 -16 13 -31 11 -14 -1 -28 4 -30 11 -3 8
-11 12 -19 9 -7 -3 -19 2 -28 10 -8 8 -17 12 -21 9 -3 -4 -6 -1 -6 6 0 7 -4 9
-10 6 -5 -3 -10 -1 -10 5 0 6 -4 9 -9 6 -5 -3 -14 1 -21 9 -7 8 -16 13 -20 10
-4 -3 -13 2 -20 9 -6 8 -20 13 -30 11 -11 -2 -24 4 -30 13 -5 9 -10 14 -10 10
0 -4 -16 0 -35 8 -19 8 -35 11 -35 8 0 -4 -9 1 -20 11 -11 10 -20 15 -20 10 0
-4 -6 -2 -13 4 -8 6 -23 12 -34 14 -12 2 -27 8 -35 14 -7 6 -21 9 -30 8 -9 -2
-22 3 -29 11 -6 8 -15 11 -20 8 -5 -3 -19 1 -31 8 -13 7 -30 13 -38 13 -8 0
-25 6 -36 13 -12 6 -24 8 -28 5 -3 -3 -16 2 -28 13 -12 10 -18 13 -13 5 6 -11
5 -12 -6 -5 -8 5 -21 9 -29 9 -8 0 -22 5 -30 10 -8 5 -22 10 -31 10 -9 0 -23
6 -31 12 -8 7 -24 11 -36 8 -12 -2 -34 3 -49 10 -16 8 -35 12 -44 10 -9 -3
-21 1 -28 9 -6 7 -25 12 -41 11 -16 -1 -34 3 -40 10 -6 8 -27 12 -50 10 -23
-2 -43 2 -50 9 -6 8 -27 12 -51 10 -24 -2 -42 2 -45 9 -2 7 -27 12 -65 12 -33
1 -63 5 -67 10 -4 6 -29 11 -57 11 -27 1 -51 7 -53 13 -3 9 -7 9 -18 0 -8 -6
-14 -7 -14 -2 0 6 -23 9 -51 7 -31 -1 -52 2 -55 9 -3 8 -32 12 -87 11 -45 0
-88 4 -96 10 -12 9 -648 16 -708 8z"/>
</g>
</svg>
